<mxfile host="app.diagrams.net" agent="Mozilla/5.0 (Windows NT 10.0; Win64; x64) AppleWebKit/537.36 (KHTML, like Gecko) Chrome/133.0.0.0 Safari/537.36" version="26.1.0">
  <diagram id="pEfc-u_AH66D-2y0eW-p" name="第 1 页">
    <mxGraphModel dx="1018" dy="522" grid="0" gridSize="10" guides="1" tooltips="1" connect="1" arrows="1" fold="1" page="1" pageScale="1" pageWidth="827" pageHeight="1169" math="0" shadow="0">
      <root>
        <mxCell id="0" />
        <mxCell id="1" parent="0" />
        <mxCell id="s-q9blK9mslLY9e_2bUz-10" value="" style="group" vertex="1" connectable="0" parent="1">
          <mxGeometry x="346" y="237" width="51" height="181" as="geometry" />
        </mxCell>
        <mxCell id="s-q9blK9mslLY9e_2bUz-8" value="" style="rounded=0;whiteSpace=wrap;html=1;fillColor=#cce5ff;strokeColor=#7EA6E0;" vertex="1" parent="s-q9blK9mslLY9e_2bUz-10">
          <mxGeometry width="51" height="181.00000000000003" as="geometry" />
        </mxCell>
        <mxCell id="s-q9blK9mslLY9e_2bUz-9" value="&lt;font face=&quot;Times New Roman&quot; style=&quot;font-size: 20px;&quot;&gt;Softmax&lt;/font&gt;" style="text;html=1;align=center;verticalAlign=middle;whiteSpace=wrap;rounded=0;rotation=90;" vertex="1" parent="s-q9blK9mslLY9e_2bUz-10">
          <mxGeometry x="-31.75" y="67.0048076923077" width="114.5" height="46.99038461538462" as="geometry" />
        </mxCell>
        <mxCell id="s-q9blK9mslLY9e_2bUz-24" style="edgeStyle=orthogonalEdgeStyle;rounded=0;orthogonalLoop=1;jettySize=auto;html=1;strokeWidth=2;strokeColor=#666666;align=center;verticalAlign=middle;fontFamily=Helvetica;fontSize=11;fontColor=default;labelBackgroundColor=default;endArrow=classic;" edge="1" parent="1" source="s-q9blK9mslLY9e_2bUz-16">
          <mxGeometry relative="1" as="geometry">
            <mxPoint x="234.3333740234375" y="324.66668701171875" as="targetPoint" />
            <Array as="points">
              <mxPoint x="321" y="471" />
              <mxPoint x="234" y="471" />
            </Array>
          </mxGeometry>
        </mxCell>
        <mxCell id="s-q9blK9mslLY9e_2bUz-26" style="edgeStyle=orthogonalEdgeStyle;rounded=0;orthogonalLoop=1;jettySize=auto;html=1;strokeWidth=2;strokeColor=#666666;" edge="1" parent="1" source="s-q9blK9mslLY9e_2bUz-16">
          <mxGeometry relative="1" as="geometry">
            <mxPoint x="247.00006103515625" y="249.33331298828125" as="targetPoint" />
            <Array as="points">
              <mxPoint x="321" y="438" />
              <mxPoint x="248" y="438" />
              <mxPoint x="248" y="249" />
            </Array>
          </mxGeometry>
        </mxCell>
        <mxCell id="s-q9blK9mslLY9e_2bUz-62" style="rounded=0;orthogonalLoop=1;jettySize=auto;html=1;strokeColor=#666666;strokeWidth=2;" edge="1" parent="1" source="s-q9blK9mslLY9e_2bUz-16">
          <mxGeometry relative="1" as="geometry">
            <mxPoint x="320.5" y="406.1904645647321" as="targetPoint" />
          </mxGeometry>
        </mxCell>
        <mxCell id="s-q9blK9mslLY9e_2bUz-16" value="&lt;font style=&quot;font-size: 20px;&quot; face=&quot;Georgia&quot;&gt;我&lt;/font&gt;" style="whiteSpace=wrap;html=1;aspect=fixed;fillColor=#cce5ff;strokeColor=none;" vertex="1" parent="1">
          <mxGeometry x="303" y="499" width="35" height="35" as="geometry" />
        </mxCell>
        <mxCell id="s-q9blK9mslLY9e_2bUz-17" value="" style="group" vertex="1" connectable="0" parent="1">
          <mxGeometry x="550" y="154" width="147" height="293" as="geometry" />
        </mxCell>
        <mxCell id="s-q9blK9mslLY9e_2bUz-14" value="" style="rounded=0;whiteSpace=wrap;html=1;strokeWidth=2;dashed=1;dashPattern=8 8;" vertex="1" parent="s-q9blK9mslLY9e_2bUz-17">
          <mxGeometry y="61" width="147" height="232" as="geometry" />
        </mxCell>
        <mxCell id="s-q9blK9mslLY9e_2bUz-5" value="&lt;font face=&quot;Times New Roman&quot; color=&quot;#ff3333&quot;&gt;&lt;span style=&quot;font-size: 20px;&quot;&gt;&lt;b&gt;me&lt;/b&gt;&lt;/span&gt;&lt;/font&gt;" style="rounded=0;whiteSpace=wrap;html=1;fillColor=#fff2cc;strokeColor=none;" vertex="1" parent="s-q9blK9mslLY9e_2bUz-17">
          <mxGeometry x="13.5" y="65.5" width="120" height="60" as="geometry" />
        </mxCell>
        <mxCell id="s-q9blK9mslLY9e_2bUz-6" value="&lt;font face=&quot;Times New Roman&quot; color=&quot;#ff3333&quot;&gt;&lt;span style=&quot;font-size: 20px;&quot;&gt;&lt;b&gt;meet&lt;/b&gt;&lt;/span&gt;&lt;/font&gt;" style="rounded=0;whiteSpace=wrap;html=1;fillColor=#f5f5f5;strokeColor=none;fontColor=#333333;" vertex="1" parent="s-q9blK9mslLY9e_2bUz-17">
          <mxGeometry x="13.5" y="140.5" width="120" height="60" as="geometry" />
        </mxCell>
        <mxCell id="s-q9blK9mslLY9e_2bUz-7" value="&lt;font face=&quot;Times New Roman&quot; color=&quot;#ff3333&quot;&gt;&lt;span style=&quot;font-size: 20px;&quot;&gt;&lt;b&gt;meat&lt;/b&gt;&lt;/span&gt;&lt;/font&gt;" style="rounded=0;whiteSpace=wrap;html=1;fillColor=#dae8fc;strokeColor=none;" vertex="1" parent="s-q9blK9mslLY9e_2bUz-17">
          <mxGeometry x="13.5" y="220.5" width="120" height="60" as="geometry" />
        </mxCell>
        <mxCell id="s-q9blK9mslLY9e_2bUz-13" value="&lt;font face=&quot;Times New Roman&quot; color=&quot;#ff3333&quot;&gt;&lt;span style=&quot;font-size: 20px;&quot;&gt;&lt;b&gt;Value&lt;/b&gt;&lt;/span&gt;&lt;/font&gt;" style="rounded=1;whiteSpace=wrap;html=1;fillColor=#f8cecc;strokeColor=none;" vertex="1" parent="s-q9blK9mslLY9e_2bUz-17">
          <mxGeometry x="32" width="83" height="49" as="geometry" />
        </mxCell>
        <mxCell id="s-q9blK9mslLY9e_2bUz-18" value="" style="group" vertex="1" connectable="0" parent="1">
          <mxGeometry x="68" y="154" width="147" height="293" as="geometry" />
        </mxCell>
        <mxCell id="s-q9blK9mslLY9e_2bUz-11" value="" style="rounded=0;whiteSpace=wrap;html=1;strokeWidth=2;dashed=1;dashPattern=8 8;" vertex="1" parent="s-q9blK9mslLY9e_2bUz-18">
          <mxGeometry y="61" width="147" height="232" as="geometry" />
        </mxCell>
        <mxCell id="s-q9blK9mslLY9e_2bUz-1" value="&lt;font face=&quot;Times New Roman&quot; color=&quot;#ff3333&quot;&gt;&lt;span style=&quot;font-size: 20px;&quot;&gt;&lt;b&gt;Key&lt;/b&gt;&lt;/span&gt;&lt;/font&gt;" style="rounded=1;whiteSpace=wrap;html=1;fillColor=#f8cecc;strokeColor=none;" vertex="1" parent="s-q9blK9mslLY9e_2bUz-18">
          <mxGeometry x="32" width="83" height="49" as="geometry" />
        </mxCell>
        <mxCell id="s-q9blK9mslLY9e_2bUz-2" value="&lt;font style=&quot;font-size: 20px; color: rgb(255, 51, 51);&quot; face=&quot;Times New Roman&quot;&gt;&lt;b&gt;vector_1&lt;/b&gt;&lt;/font&gt;" style="rounded=0;whiteSpace=wrap;html=1;fillColor=#fff2cc;strokeColor=none;" vertex="1" parent="s-q9blK9mslLY9e_2bUz-18">
          <mxGeometry x="14" y="68" width="120" height="60" as="geometry" />
        </mxCell>
        <mxCell id="s-q9blK9mslLY9e_2bUz-3" value="&lt;b style=&quot;color: rgb(255, 51, 51); font-family: &amp;quot;Times New Roman&amp;quot;; font-size: 20px;&quot;&gt;vector_2&lt;/b&gt;" style="rounded=0;whiteSpace=wrap;html=1;fillColor=#f5f5f5;strokeColor=none;fontColor=#333333;" vertex="1" parent="s-q9blK9mslLY9e_2bUz-18">
          <mxGeometry x="14" y="143" width="120" height="60" as="geometry" />
        </mxCell>
        <mxCell id="s-q9blK9mslLY9e_2bUz-4" value="&lt;b style=&quot;color: rgb(255, 51, 51); font-family: &amp;quot;Times New Roman&amp;quot;; font-size: 20px;&quot;&gt;vector_3&lt;/b&gt;" style="rounded=0;whiteSpace=wrap;html=1;fillColor=#dae8fc;strokeColor=none;" vertex="1" parent="s-q9blK9mslLY9e_2bUz-18">
          <mxGeometry x="14" y="223" width="120" height="60" as="geometry" />
        </mxCell>
        <mxCell id="s-q9blK9mslLY9e_2bUz-20" style="edgeStyle=orthogonalEdgeStyle;rounded=0;orthogonalLoop=1;jettySize=auto;html=1;entryX=0.5;entryY=1;entryDx=0;entryDy=0;strokeWidth=2;strokeColor=#666666;align=center;verticalAlign=middle;fontFamily=Helvetica;fontSize=11;fontColor=default;labelBackgroundColor=default;endArrow=classic;" edge="1" parent="1" source="s-q9blK9mslLY9e_2bUz-3" target="s-q9blK9mslLY9e_2bUz-9">
          <mxGeometry relative="1" as="geometry" />
        </mxCell>
        <mxCell id="s-q9blK9mslLY9e_2bUz-21" style="edgeStyle=orthogonalEdgeStyle;rounded=0;orthogonalLoop=1;jettySize=auto;html=1;entryX=0.007;entryY=0.939;entryDx=0;entryDy=0;entryPerimeter=0;strokeWidth=2;strokeColor=#666666;align=center;verticalAlign=middle;fontFamily=Helvetica;fontSize=11;fontColor=default;labelBackgroundColor=default;endArrow=classic;" edge="1" parent="1" source="s-q9blK9mslLY9e_2bUz-4" target="s-q9blK9mslLY9e_2bUz-8">
          <mxGeometry relative="1" as="geometry" />
        </mxCell>
        <mxCell id="s-q9blK9mslLY9e_2bUz-22" style="edgeStyle=orthogonalEdgeStyle;rounded=0;orthogonalLoop=1;jettySize=auto;html=1;entryX=0.02;entryY=0.087;entryDx=0;entryDy=0;entryPerimeter=0;strokeWidth=2;strokeColor=#666666;" edge="1" parent="1" source="s-q9blK9mslLY9e_2bUz-2" target="s-q9blK9mslLY9e_2bUz-8">
          <mxGeometry relative="1" as="geometry" />
        </mxCell>
        <mxCell id="s-q9blK9mslLY9e_2bUz-31" value="" style="group" vertex="1" connectable="0" parent="1">
          <mxGeometry x="450" y="232" width="38.28" height="43.28" as="geometry" />
        </mxCell>
        <mxCell id="s-q9blK9mslLY9e_2bUz-29" value="" style="ellipse;whiteSpace=wrap;html=1;aspect=fixed;strokeColor=#666666;strokeWidth=2;" vertex="1" parent="s-q9blK9mslLY9e_2bUz-31">
          <mxGeometry x="5.605976208089481" y="6.338209255123113" width="27.068047583821038" height="27.068047583821038" as="geometry" />
        </mxCell>
        <mxCell id="s-q9blK9mslLY9e_2bUz-30" value="" style="shape=cross;whiteSpace=wrap;html=1;fillColor=#666666;strokeColor=none;size=0.07142857142857295;rotation=45;aspect=fixed;" vertex="1" parent="s-q9blK9mslLY9e_2bUz-31">
          <mxGeometry x="5.605976208089481" y="6.338209255123113" width="27.068047583821038" height="27.068047583821038" as="geometry" />
        </mxCell>
        <mxCell id="s-q9blK9mslLY9e_2bUz-38" value="" style="group" vertex="1" connectable="0" parent="1">
          <mxGeometry x="356" y="70.28" width="34" height="27" as="geometry" />
        </mxCell>
        <mxCell id="s-q9blK9mslLY9e_2bUz-28" value="" style="ellipse;whiteSpace=wrap;html=1;aspect=fixed;strokeColor=#666666;strokeWidth=2;" vertex="1" parent="s-q9blK9mslLY9e_2bUz-38">
          <mxGeometry width="27" height="27" as="geometry" />
        </mxCell>
        <mxCell id="s-q9blK9mslLY9e_2bUz-27" value="" style="shape=cross;whiteSpace=wrap;html=1;fillColor=#666666;strokeColor=none;size=0.07142857142857295;aspect=fixed;" vertex="1" parent="s-q9blK9mslLY9e_2bUz-38">
          <mxGeometry width="27" height="27" as="geometry" />
        </mxCell>
        <mxCell id="s-q9blK9mslLY9e_2bUz-40" value="" style="group" vertex="1" connectable="0" parent="1">
          <mxGeometry x="511.72" y="28" width="38.28" height="43.28" as="geometry" />
        </mxCell>
        <mxCell id="s-q9blK9mslLY9e_2bUz-41" value="" style="ellipse;whiteSpace=wrap;html=1;aspect=fixed;strokeColor=#666666;strokeWidth=2;" vertex="1" parent="s-q9blK9mslLY9e_2bUz-40">
          <mxGeometry x="5.605976208089481" y="6.338209255123113" width="27.068047583821038" height="27.068047583821038" as="geometry" />
        </mxCell>
        <mxCell id="s-q9blK9mslLY9e_2bUz-42" value="" style="shape=cross;whiteSpace=wrap;html=1;fillColor=#666666;strokeColor=none;size=0.07142857142857295;rotation=45;aspect=fixed;" vertex="1" parent="s-q9blK9mslLY9e_2bUz-40">
          <mxGeometry x="5.605976208089481" y="6.338209255123113" width="27.068047583821038" height="27.068047583821038" as="geometry" />
        </mxCell>
        <mxCell id="s-q9blK9mslLY9e_2bUz-43" value="" style="group" vertex="1" connectable="0" parent="1">
          <mxGeometry x="450" y="305.86" width="38.28" height="43.28" as="geometry" />
        </mxCell>
        <mxCell id="s-q9blK9mslLY9e_2bUz-44" value="" style="ellipse;whiteSpace=wrap;html=1;aspect=fixed;strokeColor=#666666;strokeWidth=2;" vertex="1" parent="s-q9blK9mslLY9e_2bUz-43">
          <mxGeometry x="5.61" y="6.34" width="26.66" height="26.66" as="geometry" />
        </mxCell>
        <mxCell id="s-q9blK9mslLY9e_2bUz-45" value="" style="shape=cross;whiteSpace=wrap;html=1;fillColor=#666666;strokeColor=none;size=0.07142857142857295;rotation=45;aspect=fixed;" vertex="1" parent="s-q9blK9mslLY9e_2bUz-43">
          <mxGeometry x="5.605976208089481" y="6.338209255123113" width="27.068047583821038" height="27.068047583821038" as="geometry" />
        </mxCell>
        <mxCell id="s-q9blK9mslLY9e_2bUz-46" value="" style="group" vertex="1" connectable="0" parent="1">
          <mxGeometry x="450" y="389" width="38.28" height="43.28" as="geometry" />
        </mxCell>
        <mxCell id="s-q9blK9mslLY9e_2bUz-47" value="" style="ellipse;whiteSpace=wrap;html=1;aspect=fixed;strokeColor=#666666;strokeWidth=2;" vertex="1" parent="s-q9blK9mslLY9e_2bUz-46">
          <mxGeometry x="5.61" y="6.34" width="26.66" height="26.66" as="geometry" />
        </mxCell>
        <mxCell id="s-q9blK9mslLY9e_2bUz-48" value="" style="shape=cross;whiteSpace=wrap;html=1;fillColor=#666666;strokeColor=none;size=0.07142857142857295;rotation=45;aspect=fixed;" vertex="1" parent="s-q9blK9mslLY9e_2bUz-46">
          <mxGeometry x="5.605976208089481" y="6.338209255123113" width="27.068047583821038" height="27.068047583821038" as="geometry" />
        </mxCell>
        <mxCell id="s-q9blK9mslLY9e_2bUz-49" style="rounded=0;orthogonalLoop=1;jettySize=auto;html=1;strokeWidth=2;strokeColor=#666666;" edge="1" parent="1">
          <mxGeometry relative="1" as="geometry">
            <mxPoint x="396.64" y="252" as="sourcePoint" />
            <mxPoint x="455" y="252" as="targetPoint" />
          </mxGeometry>
        </mxCell>
        <mxCell id="s-q9blK9mslLY9e_2bUz-52" style="rounded=0;orthogonalLoop=1;jettySize=auto;html=1;entryX=1.031;entryY=0.434;entryDx=0;entryDy=0;entryPerimeter=0;strokeColor=#666666;strokeWidth=2;" edge="1" parent="1">
          <mxGeometry relative="1" as="geometry">
            <mxPoint x="563" y="252" as="sourcePoint" />
            <mxPoint x="483.5131332670089" y="252" as="targetPoint" />
          </mxGeometry>
        </mxCell>
        <mxCell id="s-q9blK9mslLY9e_2bUz-53" style="rounded=0;orthogonalLoop=1;jettySize=auto;html=1;strokeWidth=2;strokeColor=#666666;" edge="1" parent="1">
          <mxGeometry relative="1" as="geometry">
            <mxPoint x="397" y="327" as="sourcePoint" />
            <mxPoint x="455.36" y="327" as="targetPoint" />
          </mxGeometry>
        </mxCell>
        <mxCell id="s-q9blK9mslLY9e_2bUz-54" style="rounded=0;orthogonalLoop=1;jettySize=auto;html=1;entryX=1.031;entryY=0.434;entryDx=0;entryDy=0;entryPerimeter=0;strokeColor=#666666;strokeWidth=2;" edge="1" parent="1">
          <mxGeometry relative="1" as="geometry">
            <mxPoint x="563.49" y="327" as="sourcePoint" />
            <mxPoint x="484.00313326700893" y="327" as="targetPoint" />
          </mxGeometry>
        </mxCell>
        <mxCell id="s-q9blK9mslLY9e_2bUz-55" style="rounded=0;orthogonalLoop=1;jettySize=auto;html=1;strokeWidth=2;strokeColor=#666666;" edge="1" parent="1">
          <mxGeometry relative="1" as="geometry">
            <mxPoint x="397" y="407" as="sourcePoint" />
            <mxPoint x="455.36" y="407" as="targetPoint" />
          </mxGeometry>
        </mxCell>
        <mxCell id="s-q9blK9mslLY9e_2bUz-57" style="rounded=0;orthogonalLoop=1;jettySize=auto;html=1;entryX=1.031;entryY=0.434;entryDx=0;entryDy=0;entryPerimeter=0;strokeColor=#666666;strokeWidth=2;" edge="1" parent="1">
          <mxGeometry relative="1" as="geometry">
            <mxPoint x="562.49" y="407" as="sourcePoint" />
            <mxPoint x="483.00313326700893" y="407" as="targetPoint" />
          </mxGeometry>
        </mxCell>
        <mxCell id="s-q9blK9mslLY9e_2bUz-63" value="" style="group" vertex="1" connectable="0" parent="1">
          <mxGeometry x="500" y="499" width="27" height="27" as="geometry" />
        </mxCell>
        <mxCell id="s-q9blK9mslLY9e_2bUz-60" value="" style="ellipse;whiteSpace=wrap;html=1;aspect=fixed;strokeColor=#666666;strokeWidth=2;container=0;" vertex="1" parent="s-q9blK9mslLY9e_2bUz-63">
          <mxGeometry width="27" height="27" as="geometry" />
        </mxCell>
        <mxCell id="s-q9blK9mslLY9e_2bUz-61" value="" style="shape=cross;whiteSpace=wrap;html=1;fillColor=#666666;strokeColor=none;size=0.07142857142857295;aspect=fixed;container=0;" vertex="1" parent="s-q9blK9mslLY9e_2bUz-63">
          <mxGeometry width="27" height="27" as="geometry" />
        </mxCell>
        <mxCell id="s-q9blK9mslLY9e_2bUz-64" style="edgeStyle=orthogonalEdgeStyle;rounded=0;orthogonalLoop=1;jettySize=auto;html=1;entryX=0.5;entryY=0;entryDx=0;entryDy=0;entryPerimeter=0;strokeColor=#666666;strokeWidth=2;" edge="1" parent="1" source="s-q9blK9mslLY9e_2bUz-29" target="s-q9blK9mslLY9e_2bUz-61">
          <mxGeometry relative="1" as="geometry">
            <Array as="points">
              <mxPoint x="469" y="279" />
              <mxPoint x="513" y="279" />
            </Array>
          </mxGeometry>
        </mxCell>
        <mxCell id="s-q9blK9mslLY9e_2bUz-65" style="edgeStyle=orthogonalEdgeStyle;shape=connector;rounded=0;orthogonalLoop=1;jettySize=auto;html=1;entryX=0.5;entryY=0;entryDx=0;entryDy=0;strokeColor=#666666;strokeWidth=2;align=center;verticalAlign=middle;fontFamily=Helvetica;fontSize=11;fontColor=default;labelBackgroundColor=default;endArrow=classic;" edge="1" parent="1" source="s-q9blK9mslLY9e_2bUz-44" target="s-q9blK9mslLY9e_2bUz-60">
          <mxGeometry relative="1" as="geometry">
            <Array as="points">
              <mxPoint x="469" y="353" />
              <mxPoint x="513" y="353" />
            </Array>
          </mxGeometry>
        </mxCell>
        <mxCell id="s-q9blK9mslLY9e_2bUz-66" style="edgeStyle=orthogonalEdgeStyle;shape=connector;rounded=0;orthogonalLoop=1;jettySize=auto;html=1;entryX=0.5;entryY=0;entryDx=0;entryDy=0;strokeColor=#666666;strokeWidth=2;align=center;verticalAlign=middle;fontFamily=Helvetica;fontSize=11;fontColor=default;labelBackgroundColor=default;endArrow=classic;" edge="1" parent="1" source="s-q9blK9mslLY9e_2bUz-47" target="s-q9blK9mslLY9e_2bUz-60">
          <mxGeometry relative="1" as="geometry">
            <Array as="points">
              <mxPoint x="469" y="440" />
              <mxPoint x="513" y="440" />
            </Array>
          </mxGeometry>
        </mxCell>
        <mxCell id="s-q9blK9mslLY9e_2bUz-73" value="&lt;font face=&quot;Times New Roman&quot; color=&quot;#ff3333&quot;&gt;&lt;span style=&quot;font-size: 20px;&quot;&gt;&lt;b&gt;Query&lt;/b&gt;&lt;/span&gt;&lt;/font&gt;" style="rounded=1;whiteSpace=wrap;html=1;fillColor=#f8cecc;strokeColor=none;" vertex="1" parent="1">
          <mxGeometry x="279" y="542" width="83" height="49" as="geometry" />
        </mxCell>
        <mxCell id="s-q9blK9mslLY9e_2bUz-74" value="&lt;font face=&quot;Times New Roman&quot; color=&quot;#ff3333&quot;&gt;&lt;span style=&quot;font-size: 20px;&quot;&gt;&lt;b&gt;Output&lt;/b&gt;&lt;/span&gt;&lt;/font&gt;" style="rounded=1;whiteSpace=wrap;html=1;fillColor=#f8cecc;strokeColor=none;" vertex="1" parent="1">
          <mxGeometry x="471" y="542" width="83" height="49" as="geometry" />
        </mxCell>
      </root>
    </mxGraphModel>
  </diagram>
</mxfile>
